<svg xmlns="http://www.w3.org/2000/svg" xmlns:xlink="http://www.w3.org/1999/xlink" viewBox="0 0 195 80"><defs><clipPath id="clip-path"><rect x="-91" y="-967" width="770" height="926" style="fill:none"/></clipPath><linearGradient id="linear-gradient" x1="-91" y1="-34" x2="679" y2="-34" gradientUnits="userSpaceOnUse"><stop offset="0" stop-color="#f2f2f2"/><stop offset="0.27" stop-color="#eee"/><stop offset="0.56" stop-color="#e1e1e1"/><stop offset="0.85" stop-color="#ccc"/><stop offset="0.99" stop-color="#bfbfbf"/></linearGradient><linearGradient id="linear-gradient-2" x1="294" y1="23" x2="294" y2="-91" gradientUnits="userSpaceOnUse"><stop offset="0.01" stop-color="#bfbfbf"/><stop offset="0.15" stop-color="#ccc"/><stop offset="0.44" stop-color="#e1e1e1"/><stop offset="0.73" stop-color="#eee"/><stop offset="1" stop-color="#f2f2f2"/></linearGradient><linearGradient id="linear-gradient-3" x1="294" y1="23" x2="294" y2="12.88" gradientUnits="userSpaceOnUse"><stop offset="0" stop-color="#3a3a3a"/><stop offset="0.1" stop-color="#5b5b5b"/><stop offset="0.25" stop-color="#898989"/><stop offset="0.41" stop-color="#afafaf"/><stop offset="0.56" stop-color="#ccc"/><stop offset="0.71" stop-color="#e1e1e1"/><stop offset="0.86" stop-color="#eee"/><stop offset="1" stop-color="#f2f2f2"/></linearGradient><linearGradient id="linear-gradient-4" x1="97.5" y1="73.65" x2="97.5" y2="10.06" gradientUnits="userSpaceOnUse"><stop offset="0" stop-color="#b3b3b3"/><stop offset="0.67" stop-color="#e9e9e9"/><stop offset="1" stop-color="#fff"/></linearGradient><linearGradient id="linear-gradient-5" x1="97.5" y1="72.13" x2="97.5" y2="11.57" gradientUnits="userSpaceOnUse"><stop offset="0" stop-color="#8a8a8a"/><stop offset="0.15" stop-color="#979797"/><stop offset="0.43" stop-color="#adadad"/><stop offset="1" stop-color="#ddd"/></linearGradient></defs><g style="isolation:isolate"><g id="BG"><g style="clip-path:url(#clip-path)"><rect x="-91" y="-990" width="770" height="1013" style="fill:#333"/><g style="mix-blend-mode:overlay"><rect x="0.72" y="-990" width="2.41" height="1013" style="fill:#565759"/><rect x="5.55" y="-990" width="2.41" height="1013" style="fill:#565759"/><rect x="10.38" y="-990" width="2.41" height="1013" style="fill:#565759"/><rect x="15.21" y="-990" width="2.41" height="1013" style="fill:#565759"/><rect x="20.03" y="-990" width="2.41" height="1013" style="fill:#565759"/><rect x="24.86" y="-990" width="2.41" height="1013" style="fill:#565759"/><rect x="29.69" y="-990" width="2.41" height="1013" style="fill:#565759"/><rect x="34.52" y="-990" width="2.41" height="1013" style="fill:#565759"/><rect x="39.35" y="-990" width="2.41" height="1013" style="fill:#565759"/><rect x="44.17" y="-990" width="2.41" height="1013" style="fill:#565759"/><rect x="49" y="-990" width="2.41" height="1013" style="fill:#565759"/><rect x="53.83" y="-990" width="2.41" height="1013" style="fill:#565759"/><rect x="58.65" y="-990" width="2.41" height="1013" style="fill:#565759"/><rect x="63.48" y="-990" width="2.41" height="1013" style="fill:#565759"/><rect x="68.31" y="-990" width="2.41" height="1013" style="fill:#565759"/><rect x="73.14" y="-990" width="2.41" height="1013" style="fill:#565759"/><rect x="77.97" y="-990" width="2.41" height="1013" style="fill:#565759"/><rect x="82.79" y="-990" width="2.41" height="1013" style="fill:#565759"/><rect x="87.62" y="-990" width="2.41" height="1013" style="fill:#565759"/><rect x="92.45" y="-990" width="2.41" height="1013" style="fill:#565759"/><rect x="97.28" y="-990" width="2.41" height="1013" style="fill:#565759"/><rect x="102.1" y="-990" width="2.41" height="1013" style="fill:#565759"/><rect x="106.93" y="-990" width="2.41" height="1013" style="fill:#565759"/><rect x="111.76" y="-990" width="2.41" height="1013" style="fill:#565759"/><rect x="116.59" y="-990" width="2.41" height="1013" style="fill:#565759"/><rect x="121.41" y="-990" width="2.41" height="1013" style="fill:#565759"/><rect x="126.24" y="-990" width="2.41" height="1013" style="fill:#565759"/><rect x="131.07" y="-990" width="2.41" height="1013" style="fill:#565759"/><rect x="135.9" y="-990" width="2.41" height="1013" style="fill:#565759"/><rect x="140.72" y="-990" width="2.41" height="1013" style="fill:#565759"/><rect x="145.55" y="-990" width="2.41" height="1013" style="fill:#565759"/><rect x="150.38" y="-990" width="2.41" height="1013" style="fill:#565759"/><rect x="155.21" y="-990" width="2.41" height="1013" style="fill:#565759"/><rect x="160.03" y="-990" width="2.41" height="1013" style="fill:#565759"/><rect x="164.86" y="-990" width="2.41" height="1013" style="fill:#565759"/><rect x="169.69" y="-990" width="2.41" height="1013" style="fill:#565759"/><rect x="174.52" y="-990" width="2.41" height="1013" style="fill:#565759"/><rect x="179.34" y="-990" width="2.41" height="1013" style="fill:#565759"/><rect x="184.17" y="-990" width="2.41" height="1013" style="fill:#565759"/><rect x="189" y="-990" width="2.41" height="1013" style="fill:#565759"/><rect x="193.83" y="-990" width="2.41" height="1013" style="fill:#565759"/></g><rect x="-91" y="-91" width="770" height="114" style="fill:#3a3a3a"/><rect x="-91" y="-91" width="770" height="114" style="mix-blend-mode:multiply;fill:url(#linear-gradient)"/><rect x="-91" y="-91" width="770" height="114" style="mix-blend-mode:multiply;fill:url(#linear-gradient-2)"/><rect x="-91" y="12.88" width="770" height="10.12" style="opacity:0.5;mix-blend-mode:multiply;fill:url(#linear-gradient-3)"/></g></g><g id="圖層_4" data-name="圖層 4"><rect x="0.6" y="4" width="193.79" height="75.7" rx="13.63" style="opacity:0"/><rect x="2.12" y="5.52" width="190.77" height="72.67" rx="12.11" style="opacity:0.125"/><rect x="3.63" y="7.03" width="187.74" height="69.65" rx="10.6" style="opacity:0.25"/><rect x="5.14" y="8.54" width="184.71" height="66.62" rx="9.08" style="opacity:0.375"/><rect x="6.66" y="10.06" width="181.68" height="63.59" rx="7.57" style="opacity:0.5"/><rect x="6.66" y="11.57" width="181.68" height="63.59" rx="7.57" style="fill:#333"/><rect x="6.66" y="10.06" width="181.68" height="63.59" rx="7.57" style="fill:url(#linear-gradient-4)"/><rect x="8.17" y="11.57" width="178.65" height="60.56" rx="6.06" style="fill:url(#linear-gradient-5)"/><text transform="translate(68.5 56.9)" style="font-size:30px;fill:#fff;font-family:SourceHanSansTW-Bold-B5pc-H, Source Han Sans TW">買進</text><text transform="translate(67.5 55.9)" style="font-size:30px;fill:#e06668;font-family:SourceHanSansTW-Bold-B5pc-H, Source Han Sans TW">買進</text></g></g></svg>