<?xml version="1.0" encoding="utf-8"?>
<!-- Generator: Adobe Illustrator 25.2.1, SVG Export Plug-In . SVG Version: 6.00 Build 0)  -->
<svg version="1.1" id="圖層_1" xmlns="http://www.w3.org/2000/svg" xmlns:xlink="http://www.w3.org/1999/xlink" x="0px" y="0px"
	 viewBox="0 0 195 80" style="enable-background:new 0 0 195 80;" xml:space="preserve">
<style type="text/css">
	.st0{clip-path:url(#SVGID_2_);}
	.st1{fill:#333333;}
	.st2{fill:#565759;}
	.st3{fill:#3A3A3A;}
	.st4{fill:url(#SVGID_3_);}
	.st5{fill:url(#SVGID_4_);}
	.st6{opacity:0.5;fill:url(#SVGID_5_);enable-background:new    ;}
	.st7{fill-opacity:0;}
	.st8{opacity:0.125;enable-background:new    ;}
	.st9{opacity:0.25;enable-background:new    ;}
	.st10{opacity:0.375;enable-background:new    ;}
	.st11{opacity:0.5;enable-background:new    ;}
	.st12{fill:url(#SVGID_6_);}
	.st13{fill:url(#SVGID_7_);}
	.st14{fill:url(#SVGID_8_);}
	.st15{fill:#FFFFFF;}
	.st16{font-family:'SourceHanSansTW-Bold-B5pc-H';}
	.st17{font-size:36px;}
</style>
<g>
	<g id="BG">
		<g>
			<defs>
				<rect id="SVGID_1_" x="-91" y="-967" width="770" height="926"/>
			</defs>
			<clipPath id="SVGID_2_">
				<use xlink:href="#SVGID_1_"  style="overflow:visible;"/>
			</clipPath>
			<g class="st0">
				<rect x="-91" y="-990" class="st1" width="770" height="1013"/>
				<g>
					<rect x="0.7" y="-990" class="st2" width="2.4" height="1013"/>
					<rect x="5.6" y="-990" class="st2" width="2.4" height="1013"/>
					<rect x="10.4" y="-990" class="st2" width="2.4" height="1013"/>
					<rect x="15.2" y="-990" class="st2" width="2.4" height="1013"/>
					<rect x="20" y="-990" class="st2" width="2.4" height="1013"/>
					<rect x="24.9" y="-990" class="st2" width="2.4" height="1013"/>
					<rect x="29.7" y="-990" class="st2" width="2.4" height="1013"/>
					<rect x="34.5" y="-990" class="st2" width="2.4" height="1013"/>
					<rect x="39.3" y="-990" class="st2" width="2.4" height="1013"/>
					<rect x="44.2" y="-990" class="st2" width="2.4" height="1013"/>
					<rect x="49" y="-990" class="st2" width="2.4" height="1013"/>
					<rect x="53.8" y="-990" class="st2" width="2.4" height="1013"/>
					<rect x="58.7" y="-990" class="st2" width="2.4" height="1013"/>
					<rect x="63.5" y="-990" class="st2" width="2.4" height="1013"/>
					<rect x="68.3" y="-990" class="st2" width="2.4" height="1013"/>
					<rect x="73.1" y="-990" class="st2" width="2.4" height="1013"/>
					<rect x="78" y="-990" class="st2" width="2.4" height="1013"/>
					<rect x="82.8" y="-990" class="st2" width="2.4" height="1013"/>
					<rect x="87.6" y="-990" class="st2" width="2.4" height="1013"/>
					<rect x="92.4" y="-990" class="st2" width="2.4" height="1013"/>
					<rect x="97.3" y="-990" class="st2" width="2.4" height="1013"/>
					<rect x="102.1" y="-990" class="st2" width="2.4" height="1013"/>
					<rect x="106.9" y="-990" class="st2" width="2.4" height="1013"/>
					<rect x="111.8" y="-990" class="st2" width="2.4" height="1013"/>
					<rect x="116.6" y="-990" class="st2" width="2.4" height="1013"/>
					<rect x="121.4" y="-990" class="st2" width="2.4" height="1013"/>
					<rect x="126.2" y="-990" class="st2" width="2.4" height="1013"/>
					<rect x="131.1" y="-990" class="st2" width="2.4" height="1013"/>
					<rect x="135.9" y="-990" class="st2" width="2.4" height="1013"/>
					<rect x="140.7" y="-990" class="st2" width="2.4" height="1013"/>
					<rect x="145.6" y="-990" class="st2" width="2.4" height="1013"/>
					<rect x="150.4" y="-990" class="st2" width="2.4" height="1013"/>
					<rect x="155.2" y="-990" class="st2" width="2.4" height="1013"/>
					<rect x="160" y="-990" class="st2" width="2.4" height="1013"/>
					<rect x="164.9" y="-990" class="st2" width="2.4" height="1013"/>
					<rect x="169.7" y="-990" class="st2" width="2.4" height="1013"/>
					<rect x="174.5" y="-990" class="st2" width="2.4" height="1013"/>
					<rect x="179.3" y="-990" class="st2" width="2.4" height="1013"/>
					<rect x="184.2" y="-990" class="st2" width="2.4" height="1013"/>
					<rect x="189" y="-990" class="st2" width="2.4" height="1013"/>
					<rect x="193.8" y="-990" class="st2" width="2.4" height="1013"/>
				</g>
				<rect x="-91" y="-91" class="st3" width="770" height="114"/>
				
					<linearGradient id="SVGID_3_" gradientUnits="userSpaceOnUse" x1="-91" y1="113.8898" x2="679" y2="113.8898" gradientTransform="matrix(1 0 0 -1 0 79.8898)">
					<stop  offset="0" style="stop-color:#F2F2F2"/>
					<stop  offset="0.27" style="stop-color:#EEEEEE"/>
					<stop  offset="0.56" style="stop-color:#E1E1E1"/>
					<stop  offset="0.85" style="stop-color:#CCCCCC"/>
					<stop  offset="0.99" style="stop-color:#BFBFBF"/>
				</linearGradient>
				<rect x="-91" y="-91" class="st4" width="770" height="114"/>
				
					<linearGradient id="SVGID_4_" gradientUnits="userSpaceOnUse" x1="294" y1="56.8898" x2="294" y2="170.8898" gradientTransform="matrix(1 0 0 -1 0 79.8898)">
					<stop  offset="1.000000e-02" style="stop-color:#BFBFBF"/>
					<stop  offset="0.15" style="stop-color:#CCCCCC"/>
					<stop  offset="0.44" style="stop-color:#E1E1E1"/>
					<stop  offset="0.73" style="stop-color:#EEEEEE"/>
					<stop  offset="1" style="stop-color:#F2F2F2"/>
				</linearGradient>
				<rect x="-91" y="-91" class="st5" width="770" height="114"/>
				
					<linearGradient id="SVGID_5_" gradientUnits="userSpaceOnUse" x1="294" y1="56.8898" x2="294" y2="67.0098" gradientTransform="matrix(1 0 0 -1 0 79.8898)">
					<stop  offset="0" style="stop-color:#3A3A3A"/>
					<stop  offset="0.1" style="stop-color:#5B5B5B"/>
					<stop  offset="0.25" style="stop-color:#898989"/>
					<stop  offset="0.41" style="stop-color:#AFAFAF"/>
					<stop  offset="0.56" style="stop-color:#CCCCCC"/>
					<stop  offset="0.71" style="stop-color:#E1E1E1"/>
					<stop  offset="0.86" style="stop-color:#EEEEEE"/>
					<stop  offset="1" style="stop-color:#F2F2F2"/>
				</linearGradient>
				<rect x="-91" y="12.9" class="st6" width="770" height="10.1"/>
			</g>
		</g>
	</g>
	<g id="圖層_4">
		<path class="st7" d="M14.2,7.8h166.6c6.7,0,12.1,5.4,12.1,12.1v48.4c0,6.7-5.4,12.1-12.1,12.1H14.2C7.5,80.5,2.1,75,2.1,68.3V19.9
			C2.1,13.2,7.5,7.8,14.2,7.8z"/>
		<path class="st8" d="M14.2,8.2h166.5c6.1,0,11,4.9,11,11v48.4c0,6.1-4.9,11-11,11H14.2c-6.1,0-11-4.9-11-11V19.1
			C3.3,13.1,8.2,8.2,14.2,8.2z"/>
		<path class="st9" d="M14.2,8.5h166.5c5.4,0,9.8,4.4,9.8,9.8v48.5c0,5.4-4.4,9.8-9.8,9.8H14.2c-5.4,0-9.8-4.4-9.8-9.8V18.4
			C4.4,12.9,8.8,8.5,14.2,8.5z"/>
		<path class="st10" d="M14.2,8.9h166.5c4.8,0,8.7,3.9,8.7,8.7v48.4c0,4.8-3.9,8.7-8.7,8.7H14.2c-4.8,0-8.7-3.9-8.7-8.7V17.6
			C5.5,12.8,9.4,8.9,14.2,8.9z"/>
		<path class="st11" d="M14.2,9.3h166.5c4.2,0,7.6,3.4,7.6,7.6v48.4c0,4.2-3.4,7.6-7.6,7.6H14.2c-4.2,0-7.6-3.4-7.6-7.6V16.9
			C6.7,12.7,10,9.3,14.2,9.3z"/>
		<path d="M14.2,9.3h166.5c4.2,0,7.6,3.4,7.6,7.6v48.4c0,4.2-3.4,7.6-7.6,7.6H14.2c-4.2,0-7.6-3.4-7.6-7.6V16.9
			C6.7,12.7,10,9.3,14.2,9.3z"/>
		
			<linearGradient id="SVGID_6_" gradientUnits="userSpaceOnUse" x1="6.66" y1="40.3048" x2="188.34" y2="40.3048" gradientTransform="matrix(1 0 0 -1 0 79.8898)">
			<stop  offset="0" style="stop-color:#BFBFBF"/>
			<stop  offset="4.000000e-02" style="stop-color:#666666"/>
			<stop  offset="0.96" style="stop-color:#666666"/>
			<stop  offset="0.96" style="stop-color:#727272"/>
			<stop  offset="0.99" style="stop-color:#A9A9A9"/>
			<stop  offset="1" style="stop-color:#BFBFBF"/>
		</linearGradient>
		<path class="st12" d="M14.2,7.8h166.5c4.2,0,7.6,3.4,7.6,7.6v48.4c0,4.2-3.4,7.6-7.6,7.6H14.2c-4.2,0-7.6-3.4-7.6-7.6V15.4
			C6.7,11.2,10,7.8,14.2,7.8z"/>
		
			<linearGradient id="SVGID_7_" gradientUnits="userSpaceOnUse" x1="97.5" y1="13.0598" x2="97.5" y2="76.6498" gradientTransform="matrix(1 0 0 -1 0 79.8898)">
			<stop  offset="0" style="stop-color:#B3B3B3"/>
			<stop  offset="0.67" style="stop-color:#E9E9E9"/>
			<stop  offset="1" style="stop-color:#FFFFFF"/>
		</linearGradient>
		<path class="st13" d="M14.2,3.2h166.5c4.2,0,7.6,3.4,7.6,7.6v48.5c0,4.2-3.4,7.6-7.6,7.6H14.2c-4.2,0-7.6-3.4-7.6-7.6V10.8
			C6.7,6.6,10,3.2,14.2,3.2z"/>
		
			<linearGradient id="SVGID_8_" gradientUnits="userSpaceOnUse" x1="97.495" y1="14.5698" x2="97.495" y2="75.1298" gradientTransform="matrix(1 0 0 -1 0 79.8898)">
			<stop  offset="0" style="stop-color:#FF6600"/>
			<stop  offset="0.43" style="stop-color:#FF6600"/>
			<stop  offset="1" style="stop-color:#FF6600"/>
		</linearGradient>
		<path class="st14" d="M14.2,4.8h166.5c3.3,0,6.1,2.7,6.1,6.1v48.4c0,3.3-2.7,6.1-6.1,6.1H14.2c-3.3,0-6.1-2.7-6.1-6.1V10.8
			C8.2,7.5,10.9,4.8,14.2,4.8z"/>
		<text transform="matrix(1 0 0 1 25.5 50.9)" class="st15 st16 st17">我要挑戰</text>
	</g>
</g>
</svg>
